<?xml version="1.0" standalone="no"?>
<!DOCTYPE svg PUBLIC "-//W3C//DTD SVG 20010904//EN"
 "http://www.w3.org/TR/2001/REC-SVG-20010904/DTD/svg10.dtd">
<svg version="1.0" xmlns="http://www.w3.org/2000/svg"
 width="146.000000pt" height="146.000000pt" viewBox="0 0 146.000000 146.000000"
 preserveAspectRatio="xMidYMid meet">
<metadata>
Created by potrace 1.14, written by Peter Selinger 2001-2017
</metadata>
<g transform="translate(0.000000,146.000000) scale(0.100000,-0.100000)"
fill="#000000" stroke="none">
<path d="M549 1025 c-46 -47 -114 -117 -151 -156 -93 -97 -92 -113 14 -219
l40 -42 -28 -29 -28 -29 -98 97 c-88 87 -96 99 -83 113 8 9 15 20 15 24 0 11
-57 76 -88 100 l-24 19 -59 -59 c-51 -51 -59 -63 -59 -96 0 -35 11 -49 177
-218 170 -172 180 -180 217 -180 35 0 46 7 107 70 l68 69 48 -47 c59 -59 93
-82 117 -82 12 0 90 71 203 185 232 234 228 216 74 373 -113 115 -140 116
-243 10 -38 -38 -68 -72 -68 -75 0 -3 25 -30 56 -60 l56 -55 37 36 c30 29 40
34 49 24 22 -27 15 -39 -77 -133 l-95 -96 -20 21 -21 20 33 31 c17 16 32 34
32 39 0 14 -99 110 -114 110 -7 0 -25 -14 -39 -32 -22 -26 -29 -29 -42 -18 -8
7 -15 18 -15 24 0 6 47 58 105 116 57 58 105 110 105 115 0 11 -101 115 -111
115 -3 0 -44 -38 -90 -85z"/>
<path d="M1440 665 c0 -43 4 -75 10 -75 6 0 10 32 10 75 0 43 -4 75 -10 75 -6
0 -10 -32 -10 -75z"/>
<path d="M1107 629 c-23 -24 -49 -42 -58 -41 -29 5 -67 -17 -85 -48 -11 -17
-29 -33 -41 -36 -50 -13 -70 -92 -33 -132 20 -21 27 -22 254 -22 230 0 233 0
254 23 16 17 22 36 22 70 0 42 -4 49 -39 77 -25 21 -41 43 -45 63 -11 54 -49
81 -122 85 l-64 4 -43 -43z"/>
<path d="M1446 474 c-10 -25 -7 -82 4 -89 6 -4 10 15 10 49 0 58 -3 68 -14 40z"/>
</g>
</svg>
