<svg width="62" height="51" viewBox="0 0 62 51" fill="none" xmlns="http://www.w3.org/2000/svg">
<path fill-rule="evenodd" clip-rule="evenodd" d="M24 3H37C38.6569 3 40 4.34315 40 6V8H21V6C21 4.34315 22.3431 3 24 3ZM18 8V6C18 2.68629 20.6863 0 24 0H37C40.3137 0 43 2.68629 43 6V8H54C58.4183 8 62 11.5817 62 16V43C62 47.4183 58.4183 51 54 51H8C3.58172 51 0 47.4183 0 43V16C0 11.5817 3.58172 8 8 8H18ZM43 11H40H21H18H8C5.23858 11 3 13.2386 3 16V43C3 45.7614 5.23858 48 8 48H54C56.7614 48 59 45.7614 59 43V16C59 13.2386 56.7614 11 54 11H43Z" fill="#5849FF"/>
</svg>
